<?xml version="1.0" standalone="no"?>
<!DOCTYPE svg PUBLIC "-//W3C//DTD SVG 20010904//EN"
 "http://www.w3.org/TR/2001/REC-SVG-20010904/DTD/svg10.dtd">
<svg version="1.0" xmlns="http://www.w3.org/2000/svg"
 width="850.000000pt" height="766.000000pt" viewBox="0 0 850.000000 766.000000"
 preserveAspectRatio="xMidYMid meet">

<g transform="translate(0.000000,766.000000) scale(0.100000,-0.100000)"
fill="#000000" stroke="none">
<path d="M0 3830 l0 -3830 4250 0 4250 0 0 3830 0 3830 -4250 0 -4250 0 0
-3830z m5435 3152 c50 0 153 -6 230 -11 77 -6 206 -16 288 -21 150 -11 306
-33 342 -49 11 -5 52 -17 90 -26 39 -10 88 -26 111 -36 22 -10 63 -27 90 -37
226 -89 481 -329 600 -565 76 -150 120 -291 164 -530 33 -180 51 -849 51
-1892 0 -1209 -21 -1808 -71 -1970 -5 -16 -19 -70 -30 -120 -12 -49 -25 -94
-29 -100 -4 -5 -18 -39 -31 -74 -69 -197 -235 -412 -425 -554 -89 -66 -226
-138 -325 -169 -36 -11 -70 -25 -76 -30 -7 -4 -64 -19 -128 -32 -63 -14 -119
-27 -123 -29 -29 -18 -482 -47 -798 -52 -1636 -28 -2793 -5 -3090 60 -93 21
-247 64 -280 79 -16 8 -50 22 -75 32 -232 90 -493 337 -612 579 -73 148 -102
242 -158 510 -17 83 -30 302 -40 670 -13 512 -19 2001 -9 2250 24 597 31 728
44 810 21 144 68 345 85 370 4 6 13 28 20 50 19 62 94 206 147 281 55 80 203
232 283 291 69 52 184 117 252 144 29 11 67 26 84 34 29 14 187 56 282 76 124
25 400 46 782 59 173 5 1669 7 2355 2z"/>
<path d="M6200 6343 c-17 -5 -34 -12 -110 -46 -77 -33 -173 -128 -206 -203
-14 -32 -31 -70 -37 -83 -7 -14 -12 -69 -12 -130 1 -103 2 -108 42 -191 69
-144 162 -220 321 -261 105 -28 220 -12 328 44 87 45 190 172 213 264 7 26 17
58 23 69 22 46 -11 230 -53 303 -87 149 -248 242 -416 240 -43 0 -85 -3 -93
-6z"/>
<path d="M4020 5800 c-19 -4 -82 -16 -140 -25 -110 -18 -288 -70 -378 -111
-29 -13 -55 -24 -59 -24 -3 0 -47 -21 -97 -46 -377 -192 -702 -527 -879 -905
-68 -145 -72 -156 -110 -279 -45 -144 -63 -241 -78 -417 -13 -152 -8 -438 9
-468 5 -11 20 -74 32 -140 12 -66 25 -124 29 -130 5 -5 20 -50 35 -99 15 -49
34 -99 41 -110 8 -12 23 -45 34 -74 12 -29 29 -65 39 -80 11 -15 36 -56 57
-92 120 -204 337 -436 556 -592 207 -148 496 -273 739 -319 192 -36 209 -38
385 -38 186 0 254 6 420 39 100 20 373 104 385 120 3 3 30 16 60 29 52 22 226
123 280 163 337 250 555 527 713 906 37 90 97 322 113 437 22 167 15 502 -14
667 -12 65 -26 126 -31 135 -6 10 -17 45 -26 78 -29 109 -89 242 -191 431 -48
87 -195 273 -299 378 -149 150 -376 308 -565 393 -41 19 -84 38 -95 44 -57 27
-277 90 -367 104 -57 9 -120 20 -140 24 -49 11 -413 12 -458 1z m425 -700 c39
-6 79 -14 90 -19 11 -5 49 -16 85 -26 166 -42 378 -167 518 -304 177 -172 292
-375 355 -621 30 -117 32 -136 32 -300 0 -109 -5 -190 -12 -215 -7 -22 -21
-77 -32 -122 -23 -95 -34 -124 -98 -248 -64 -124 -122 -205 -228 -311 -128
-129 -264 -223 -397 -275 -29 -11 -66 -26 -83 -34 -26 -12 -73 -22 -291 -66
-101 -20 -484 23 -539 61 -5 4 -45 19 -88 34 -42 16 -80 32 -82 37 -3 5 -25
17 -48 28 -40 18 -81 46 -199 137 -134 103 -314 349 -358 489 -7 22 -18 49
-25 60 -6 11 -20 52 -29 91 -58 237 -55 498 8 709 50 165 166 367 286 498 98
106 278 238 386 283 22 9 57 24 79 34 22 10 67 26 100 35 33 9 71 21 85 26 71
27 351 38 485 19z"/>
</g>
</svg>
